<svg width="659" height="783" viewBox="0 0 659 783" fill="none" xmlns="http://www.w3.org/2000/svg">
<path d="M657.693 776.134H399.955V774.028H658.075L657.693 776.134Z" fill="#3F3D56"/>
<path d="M504.831 734.872H490.831V764.872H504.831V734.872Z" fill="#FBBEBE"/>
<path d="M613.831 735.872H599.831V765.872H613.831V735.872Z" fill="#FBBEBE"/>
<path d="M615.331 750.372L598.331 748.372L554.331 545.372L506.331 749.372L489.331 747.372C486.526 655.065 494.724 562.722 501.831 485.872L603.331 477.372C622.455 553.1 623.24 647.347 615.331 750.372Z" fill="black"/>
<path d="M604.776 489.382C604.776 489.382 581.135 514.051 594.497 520.218C607.859 526.385 616.082 492.466 616.082 492.466L604.776 489.382Z" fill="#FBE6BE"/>
<path d="M483.776 491.382C483.776 491.382 460.135 516.051 473.497 522.218C486.859 528.385 495.082 494.466 495.082 494.466L483.776 491.382Z" fill="#FBE6BE"/>
<path d="M555.831 312.872C571.295 312.872 583.831 300.336 583.831 284.872C583.831 269.408 571.295 256.872 555.831 256.872C540.367 256.872 527.831 269.408 527.831 284.872C527.831 300.336 540.367 312.872 555.831 312.872Z" fill="#FBE6BE"/>
<path d="M588.331 343.372L538.331 348.372C542.953 327.567 544.073 308.13 538.331 291.372H573.331C571.43 305.336 578.537 323.698 588.331 343.372Z" fill="#FBE6BE"/>
<path d="M602.331 488.372C583.649 510.846 544.388 503.332 499.331 487.372C512.117 445.639 510.134 401.609 498.645 356.101C498.019 353.655 498.278 351.067 499.376 348.793C500.473 346.52 502.34 344.708 504.645 343.677L541.331 327.372L555.331 330.372L579.331 324.372L613.399 331.341C616.169 331.908 618.645 333.449 620.376 335.684C622.108 337.919 622.982 340.701 622.838 343.525C619.989 399.382 614.949 451.075 602.331 488.372Z" fill="#8C2200"/>
<path d="M612.331 506.372L603.331 491.372L620.331 427.372L611.331 331.372C617.137 331.953 622.607 334.364 626.952 338.258C631.297 342.152 634.291 347.327 635.502 353.034L649.156 417.402C651.214 427.104 649.979 437.216 645.645 446.138L612.331 506.372Z" fill="#8C2200"/>
<path d="M495.331 495.372L474.831 498.872L487.904 370.909C488.03 364.523 490.035 358.316 493.668 353.063C497.301 347.811 502.401 343.744 508.331 341.372V341.372L514.831 425.872L495.331 495.372Z" fill="#8C2200"/>
<path d="M499.508 775.356L461.775 781.983C460.062 782.284 458.298 782.047 456.726 781.304V781.304C455.481 780.716 454.4 779.832 453.576 778.729C452.753 777.625 452.213 776.337 452.003 774.976C451.794 773.615 451.922 772.224 452.375 770.924C452.829 769.624 453.595 768.456 454.605 767.521L470.769 752.565L474.983 745.201C476.169 743.068 477.86 741.26 479.908 739.935C481.957 738.609 484.3 737.808 486.731 737.601C493.937 737.101 496.315 742.585 494.809 752.883C500.282 756.909 501.147 756.291 504.831 750.872L506.504 767.848C506.313 769.69 505.527 771.42 504.264 772.775C503.002 774.129 501.332 775.036 499.508 775.356Z" fill="black"/>
<path d="M608.508 775.356L570.775 781.983C569.062 782.284 567.298 782.047 565.726 781.304V781.304C564.481 780.716 563.4 779.832 562.576 778.729C561.753 777.625 561.213 776.337 561.003 774.976C560.794 773.615 560.922 772.224 561.375 770.924C561.829 769.624 562.595 768.456 563.605 767.521L579.769 752.565L583.983 745.201C585.169 743.068 586.86 741.26 588.908 739.935C590.957 738.609 593.3 737.808 595.731 737.601C602.937 737.101 605.315 742.585 603.809 752.883C609.282 756.909 610.147 756.291 613.831 750.872L615.504 767.848C615.313 769.69 614.527 771.42 613.264 772.775C612.002 774.129 610.332 775.036 608.508 775.356V775.356Z" fill="black"/>
<path d="M533.601 268.918C546.222 261.698 558.86 266.311 571.519 286.013L574.107 307C593.107 289 592.147 264.436 570.84 254.445C568.745 253.462 566.715 252.345 564.435 252.74C559.93 250.322 554.671 249.714 549.733 251.041C544.795 252.367 540.549 255.528 537.861 259.879C533.925 260.561 528.281 268.382 528.484 272.372L533.601 268.918Z" fill="black"/>
<path d="M570.331 290.872C572.264 290.872 573.831 288.857 573.831 286.372C573.831 283.887 572.264 281.872 570.331 281.872C568.398 281.872 566.831 283.887 566.831 286.372C566.831 288.857 568.398 290.872 570.331 290.872Z" fill="#FBE6BE"/>
<path d="M152.405 500H210.672C210.672 506.1 208.248 511.95 203.935 516.263C199.622 520.577 193.772 523 187.672 523H175.405C169.305 523 163.455 520.577 159.141 516.263C154.828 511.95 152.405 506.1 152.405 500H152.405Z" fill="#FFDE67"/>
<path d="M224.286 451.505C223.892 451.505 223.502 451.427 223.138 451.277C222.774 451.126 222.443 450.905 222.165 450.626C221.886 450.348 221.665 450.017 221.514 449.653C221.364 449.289 221.286 448.899 221.286 448.505V427.131C221.286 402.006 246.065 378.551 264.159 361.425C265.66 360.003 267.12 358.621 268.522 357.28C293.551 333.353 306.781 300.843 306.781 263.266C306.781 193.037 251.768 138.024 181.538 138.024C181.421 138.023 181.303 138.023 181.185 138.023C148.134 138.06 116.443 151.182 93.0399 174.519C69.6368 197.856 56.4259 229.511 56.2958 262.561V263.26C56.2958 300.062 70.2352 334.323 94.5404 357.267C95.7719 358.43 97.0507 359.627 98.3636 360.855C116.691 378.015 141.791 401.514 141.791 427.131V448.505C141.791 449.301 141.475 450.064 140.912 450.626C140.35 451.189 139.587 451.505 138.791 451.505C137.995 451.505 137.232 451.189 136.67 450.626C136.107 450.064 135.791 449.301 135.791 448.505V427.131C135.791 404.116 111.788 381.645 94.2631 365.235C92.9437 364.001 91.6591 362.798 90.4218 361.63C64.9213 337.558 50.2957 301.706 50.2957 263.266V262.546C50.4969 190.501 109.181 132.023 181.176 132.023C181.304 132.023 181.419 132.023 181.547 132.023C198.806 131.934 215.913 135.267 231.876 141.831C247.839 148.395 262.342 158.059 274.546 170.264C286.75 182.469 296.413 196.973 302.976 212.936C309.539 228.9 312.871 246.006 312.781 263.266C312.781 302.521 298.91 336.53 272.669 361.617C271.26 362.964 269.792 364.354 268.283 365.782C250.981 382.159 227.286 404.588 227.286 427.131V448.505C227.286 448.899 227.208 449.289 227.058 449.653C226.907 450.017 226.686 450.348 226.407 450.626C226.129 450.905 225.798 451.126 225.434 451.277C225.07 451.427 224.68 451.505 224.286 451.505Z" fill="#FFDE67"/>
<path d="M210.036 490H153.04C151.714 490 150.442 489.473 149.504 488.536C148.567 487.598 148.04 486.326 148.04 485C148.04 483.674 148.567 482.402 149.504 481.464C150.442 480.527 151.714 480 153.04 480H210.036C211.363 480 212.634 480.527 213.572 481.464C214.51 482.402 215.036 483.674 215.036 485C215.036 486.326 214.51 487.598 213.572 488.536C212.634 489.473 211.363 490 210.036 490V490Z" fill="#FFDE67"/>
<path d="M48.9369 145.406C47.7281 145.407 46.5601 144.969 45.6507 144.172L2.71176 106.691C2.21642 106.259 1.811 105.734 1.51867 105.146C1.22634 104.558 1.05285 103.917 1.00808 103.262C0.963316 102.606 1.04816 101.949 1.25778 101.326C1.4674 100.703 1.79768 100.128 2.22973 99.6332C2.66178 99.1382 3.18715 98.7333 3.77578 98.4415C4.36442 98.1498 5.00477 97.9769 5.66027 97.9327C6.31577 97.8885 6.97355 97.974 7.596 98.1842C8.21845 98.3944 8.79337 98.7252 9.2879 99.1577L52.2269 136.639C52.9937 137.309 53.5379 138.196 53.7869 139.183C54.0358 140.17 53.9775 141.21 53.6198 142.163C53.2622 143.116 52.6222 143.937 51.7854 144.516C50.9486 145.096 49.9548 145.406 48.9369 145.406H48.9369Z" fill="#8C0000"/>
<path d="M307.016 145.406C305.998 145.406 305.004 145.096 304.167 144.516C303.33 143.937 302.69 143.116 302.333 142.163C301.975 141.21 301.917 140.17 302.166 139.183C302.415 138.196 302.959 137.309 303.726 136.639L346.664 99.1577C347.663 98.2871 348.967 97.8488 350.289 97.9391C351.611 98.0294 352.844 98.6409 353.715 99.6393C354.587 100.638 355.026 101.941 354.937 103.263C354.848 104.586 354.238 105.818 353.24 106.691L310.302 144.172C309.392 144.969 308.224 145.407 307.016 145.406V145.406Z" fill="#8C0000"/>
<path d="M224.286 472.253H138.791C137.465 472.253 136.193 471.726 135.255 470.788C134.318 469.851 133.791 468.579 133.791 467.253C133.791 465.927 134.318 464.655 135.255 463.717C136.193 462.78 137.465 462.253 138.791 462.253H224.286C225.612 462.253 226.884 462.78 227.822 463.717C228.759 464.655 229.286 465.927 229.286 467.253C229.286 468.579 228.759 469.851 227.822 470.788C226.884 471.726 225.612 472.253 224.286 472.253Z" fill="#FFDE67"/>
<path d="M181.538 453.505C180.882 453.505 180.232 453.376 179.625 453.124C179.018 452.873 178.467 452.505 178.003 452.04C177.539 451.576 177.17 451.025 176.919 450.418C176.668 449.812 176.538 449.161 176.538 448.505V334.512C176.538 333.186 177.065 331.914 178.003 330.976C178.941 330.038 180.212 329.512 181.538 329.512C182.865 329.512 184.136 330.038 185.074 330.976C186.012 331.914 186.538 333.186 186.538 334.512V448.505C186.538 449.161 186.409 449.812 186.158 450.418C185.907 451.025 185.538 451.576 185.074 452.04C184.61 452.505 184.059 452.873 183.452 453.124C182.845 453.376 182.195 453.505 181.538 453.505V453.505Z" fill="#8C0000"/>
<path d="M181.538 339.512C165.383 339.512 145.549 324.896 144.712 324.274C144.185 323.882 143.741 323.391 143.404 322.827C143.068 322.263 142.845 321.639 142.75 320.989C142.654 320.339 142.688 319.677 142.848 319.041C143.009 318.404 143.293 317.805 143.685 317.278C144.077 316.751 144.569 316.307 145.132 315.97C145.696 315.634 146.321 315.411 146.97 315.316C147.62 315.22 148.282 315.254 148.919 315.414C149.555 315.575 150.154 315.859 150.681 316.251C155.65 319.938 170.886 329.512 181.538 329.512C192.191 329.512 207.427 319.938 212.398 316.249C212.925 315.857 213.524 315.573 214.161 315.413C214.798 315.253 215.46 315.219 216.109 315.315C216.759 315.411 217.384 315.633 217.947 315.97C218.511 316.307 219.002 316.752 219.394 317.279C219.786 317.806 220.07 318.404 220.23 319.041C220.391 319.678 220.424 320.34 220.328 320.99C220.233 321.639 220.01 322.264 219.673 322.827C219.336 323.391 218.892 323.883 218.365 324.274C217.528 324.896 197.694 339.512 181.538 339.512Z" fill="#8C0000"/>
<path d="M181.538 95.4951C180.212 95.4951 178.94 94.9682 178.003 94.0306C177.065 93.0929 176.538 91.8212 176.538 90.4951V5C176.538 3.67392 177.065 2.40215 178.002 1.46447C178.94 0.526784 180.212 0 181.538 0C182.864 0 184.136 0.526784 185.073 1.46447C186.011 2.40215 186.538 3.67392 186.538 5V90.4951C186.538 91.8212 186.011 93.0929 185.073 94.0306C184.136 94.9682 182.864 95.4951 181.538 95.4951V95.4951Z" fill="#8C0000"/>
</svg>
