<svg width="739" height="505" viewBox="0 0 739 505" fill="none" xmlns="http://www.w3.org/2000/svg">
<g clip-path="url(#clip0)">
<path d="M725.214 458.915C720.162 476.442 705.41 488.711 690.022 499.133C687.874 500.588 685.725 502.01 683.575 503.399C683.56 503.405 683.545 503.419 683.53 503.425C683.427 503.492 683.323 503.558 683.227 503.625C682.783 503.911 682.339 504.197 681.899 504.48L682.141 504.589C682.141 504.589 682.378 504.715 682.119 504.609C682.041 504.576 681.96 504.547 681.883 504.515C672.944 500.91 663.846 497.039 656.995 490.285C649.889 483.271 645.736 472.27 649.584 463.057C650.09 461.85 650.729 460.703 651.489 459.638C651.801 459.191 652.137 458.764 652.487 458.344C654.61 455.753 657.384 453.775 660.525 452.612C663.666 451.449 667.06 451.143 670.358 451.727C673.656 452.31 676.739 453.762 679.29 455.932C681.841 458.102 683.768 460.912 684.873 464.074C686.003 453.548 677.324 444.731 668.971 438.226C660.615 431.723 651.12 424.642 649.505 414.175C648.603 408.351 650.628 402.707 654.317 398.176C654.431 398.039 654.545 397.901 654.663 397.767C659.154 392.49 665.47 389.102 672.35 388.278C685.163 386.947 697.609 393.729 706.918 402.638C721.9 416.972 730.957 438.988 725.214 458.915Z" fill="#F2F2F2"/>
<path d="M701.13 435.991C703.589 439.817 705.477 443.981 706.734 448.352C707.797 452.259 708.271 456.302 708.138 460.349C707.795 468.676 705.457 476.798 701.322 484.033C698.207 489.522 694.41 494.596 690.022 499.133C687.874 500.588 685.725 502.01 683.575 503.399C683.56 503.405 683.545 503.419 683.53 503.425C683.427 503.492 683.323 503.558 683.227 503.625C682.783 503.911 682.339 504.197 681.899 504.48C681.899 504.48 682.378 504.715 682.119 504.609C682.041 504.576 681.96 504.547 681.883 504.515C682.685 497.946 681.9 491.281 679.594 485.078C677.289 478.875 673.531 473.315 668.634 468.864C663.726 464.481 657.851 461.319 651.489 459.638C651.801 459.191 652.137 458.764 652.487 458.344C654.944 459.033 657.336 459.938 659.634 461.048C667.848 464.993 674.574 471.477 678.816 479.542C682.622 486.865 684.26 495.122 683.538 503.343C683.905 503.01 684.273 502.67 684.63 502.333C691.423 496 697.456 488.731 701.539 480.341C705.082 473.237 706.823 465.37 706.609 457.434C706.276 448.781 702.828 440.766 697.836 433.788C692.365 426.344 685.902 419.682 678.626 413.989C671.293 408.116 663.27 403.163 654.734 399.239C654.541 399.149 654.39 398.989 654.313 398.791C654.235 398.593 654.237 398.373 654.317 398.176C654.374 398 654.498 397.853 654.663 397.767C654.748 397.731 654.839 397.714 654.932 397.718C655.024 397.722 655.114 397.746 655.195 397.79C656.249 398.275 657.296 398.767 658.334 399.28C666.981 403.554 675.064 408.886 682.396 415.153C689.479 421.191 696.147 428.09 701.13 435.991Z" fill="white"/>
<path d="M615.72 1.13672e-08H8.71971C6.4077 0.00210513 4.19098 0.921497 2.55617 2.55637C0.921351 4.19124 0.00203087 6.40799 0 8.72V420.04C0.00202823 422.352 0.92135 424.569 2.55617 426.204C4.19098 427.839 6.40769 428.758 8.71971 428.76H615.72C616.98 428.76 618.226 428.486 619.371 427.958C620.516 427.43 621.532 426.659 622.35 425.7C622.419 425.625 622.483 425.545 622.54 425.46C623.061 424.824 623.482 424.112 623.79 423.35C624.229 422.302 624.453 421.176 624.45 420.04V8.72005C624.447 6.4064 623.526 4.18838 621.889 2.55331C620.252 0.918249 618.033 -0.000117975 615.72 1.13672e-08V1.13672e-08ZM621.96 420.04C621.961 421.257 621.603 422.446 620.93 423.46C620.332 424.352 619.521 425.081 618.57 425.58C617.689 426.035 616.711 426.272 615.72 426.27H8.71971C7.06803 426.268 5.48457 425.611 4.31665 424.443C3.14873 423.275 2.49172 421.692 2.48972 420.04V8.72005C2.49172 7.06836 3.14873 5.4849 4.31665 4.31699C5.48457 3.14907 7.06803 2.49204 8.71971 2.49004H615.72C617.373 2.48982 618.959 3.1458 620.129 4.3139C621.299 5.48201 621.957 7.06674 621.96 8.72005V420.04Z" fill="#E6E6E6"/>
<path d="M623.199 34.9492H1.24265V37.442H623.199V34.9492Z" fill="#E5E5E5"/>
<path d="M22.4316 26.1745C26.5618 26.1745 29.91 22.8263 29.91 18.6961C29.91 14.5659 26.5618 11.2177 22.4316 11.2177C18.3013 11.2177 14.9531 14.5659 14.9531 18.6961C14.9531 22.8263 18.3013 26.1745 22.4316 26.1745Z" fill="#CCCCCC"/>
<path d="M45.2807 26.0519C49.3432 25.3071 52.0327 21.41 51.2879 17.3475C50.5431 13.285 46.6459 10.5954 42.5834 11.3403C38.5209 12.0851 35.8314 15.9822 36.5762 20.0447C37.3211 24.1072 41.2182 26.7968 45.2807 26.0519Z" fill="#FFDE67"/>
<path d="M65.4326 26.1745C69.5628 26.1745 72.911 22.8263 72.911 18.6961C72.911 14.5659 69.5628 11.2177 65.4326 11.2177C61.3023 11.2177 57.9541 14.5659 57.9541 18.6961C57.9541 22.8263 61.3023 26.1745 65.4326 26.1745Z" fill="#8C2200"/>
<path d="M402.812 175.361C398.822 175.361 394.922 174.178 391.604 171.961C388.286 169.744 385.701 166.593 384.174 162.907C382.647 159.22 382.247 155.164 383.026 151.251C383.804 147.337 385.725 143.743 388.547 140.921C391.368 138.1 394.963 136.178 398.876 135.4C402.79 134.621 406.846 135.021 410.533 136.548C414.219 138.075 417.37 140.661 419.586 143.978C421.803 147.296 422.986 151.196 422.986 155.186C422.98 160.535 420.853 165.663 417.071 169.445C413.289 173.227 408.161 175.355 402.812 175.361V175.361ZM402.812 136.924C399.2 136.924 395.669 137.995 392.666 140.002C389.663 142.009 387.322 144.861 385.94 148.198C384.558 151.535 384.196 155.207 384.901 158.749C385.605 162.292 387.345 165.546 389.899 168.1C392.453 170.654 395.707 172.393 399.249 173.098C402.792 173.803 406.464 173.441 409.801 172.059C413.138 170.676 415.99 168.336 417.997 165.332C420.003 162.329 421.074 158.798 421.074 155.186C421.069 150.345 419.143 145.703 415.719 142.279C412.296 138.856 407.654 136.93 402.812 136.924V136.924Z" fill="#8C2200"/>
<path d="M400.908 162.518C400.475 162.518 400.055 162.378 399.709 162.119L399.687 162.103L395.171 158.648C394.748 158.324 394.472 157.846 394.402 157.318C394.332 156.79 394.475 156.256 394.799 155.834C395.123 155.411 395.601 155.135 396.129 155.065C396.657 154.996 397.191 155.138 397.613 155.462L400.538 157.706L407.451 148.687C407.612 148.478 407.812 148.302 408.04 148.17C408.268 148.039 408.52 147.953 408.781 147.918C409.042 147.884 409.308 147.901 409.562 147.969C409.817 148.037 410.055 148.155 410.264 148.315L410.265 148.316L410.222 148.375L410.266 148.316C410.688 148.64 410.964 149.118 411.033 149.646C411.103 150.173 410.96 150.707 410.637 151.129L402.506 161.732C402.318 161.977 402.076 162.174 401.799 162.31C401.522 162.446 401.218 162.516 400.909 162.515L400.908 162.518Z" fill="#F0CA40"/>
<path d="M460.537 175.361C456.547 175.361 452.646 174.178 449.329 171.961C446.011 169.744 443.425 166.593 441.898 162.907C440.371 159.22 439.972 155.164 440.75 151.251C441.529 147.337 443.45 143.743 446.272 140.921C449.093 138.1 452.688 136.178 456.601 135.4C460.515 134.621 464.571 135.021 468.257 136.548C471.944 138.075 475.094 140.661 477.311 143.978C479.528 147.296 480.711 151.196 480.711 155.186C480.705 160.535 478.578 165.663 474.796 169.445C471.014 173.227 465.886 175.355 460.537 175.361V175.361ZM460.537 136.924C456.925 136.924 453.394 137.995 450.391 140.002C447.388 142.009 445.047 144.861 443.665 148.198C442.283 151.535 441.921 155.207 442.626 158.749C443.33 162.292 445.07 165.546 447.624 168.1C450.178 170.654 453.432 172.393 456.974 173.098C460.517 173.803 464.189 173.441 467.526 172.059C470.863 170.676 473.715 168.336 475.721 165.332C477.728 162.329 478.799 158.798 478.799 155.186C478.794 150.345 476.868 145.703 473.444 142.279C470.021 138.855 465.379 136.93 460.537 136.924V136.924Z" fill="#FFDE67"/>
<path d="M467.799 162.167C467.556 162.408 467.228 162.544 466.886 162.544C466.543 162.544 466.215 162.408 465.973 162.167L461.132 157.326C461.024 157.218 460.877 157.157 460.725 157.157C460.572 157.157 460.426 157.218 460.318 157.326L455.477 162.167C455.235 162.409 454.906 162.545 454.564 162.545C454.221 162.545 453.893 162.409 453.65 162.167C453.408 161.924 453.272 161.596 453.272 161.253C453.272 160.911 453.408 160.582 453.65 160.34L458.491 155.499C458.599 155.391 458.66 155.245 458.66 155.092C458.66 154.94 458.599 154.794 458.492 154.686L453.65 149.844C453.408 149.602 453.272 149.274 453.272 148.931C453.272 148.589 453.408 148.261 453.65 148.018C453.892 147.776 454.221 147.64 454.563 147.64C454.906 147.64 455.234 147.776 455.476 148.018L460.318 152.86C460.426 152.967 460.572 153.028 460.724 153.028C460.877 153.028 461.023 152.967 461.131 152.86L465.972 148.019C466.214 147.776 466.543 147.64 466.885 147.64C467.228 147.64 467.556 147.776 467.799 148.019C468.041 148.261 468.177 148.589 468.177 148.932C468.177 149.274 468.041 149.603 467.798 149.845L462.958 154.686C462.85 154.794 462.789 154.94 462.789 155.093C462.789 155.245 462.85 155.392 462.958 155.5L467.799 160.341C468.04 160.583 468.176 160.911 468.176 161.254C468.176 161.596 468.04 161.924 467.799 162.167V162.167Z" fill="#8C2200"/>
<path d="M402.812 239.41C398.822 239.41 394.922 238.227 391.604 236.01C388.286 233.794 385.701 230.643 384.174 226.956C382.647 223.27 382.247 219.214 383.026 215.3C383.804 211.387 385.725 207.792 388.547 204.971C391.368 202.149 394.963 200.228 398.876 199.45C402.79 198.671 406.846 199.071 410.533 200.598C414.219 202.124 417.37 204.71 419.586 208.028C421.803 211.346 422.986 215.246 422.986 219.236C422.98 224.585 420.853 229.713 417.071 233.495C413.289 237.277 408.161 239.404 402.812 239.41V239.41ZM402.812 200.974C399.2 200.974 395.669 202.045 392.666 204.052C389.663 206.058 387.322 208.91 385.94 212.247C384.558 215.584 384.196 219.256 384.901 222.799C385.605 226.341 387.345 229.595 389.899 232.149C392.453 234.703 395.707 236.443 399.249 237.147C402.792 237.852 406.464 237.49 409.801 236.108C413.138 234.726 415.99 232.385 417.997 229.382C420.003 226.379 421.074 222.848 421.074 219.236C421.069 214.394 419.143 209.752 415.719 206.329C412.296 202.905 407.654 200.979 402.812 200.974V200.974Z" fill="#8C2200"/>
<path d="M400.908 226.567C400.475 226.568 400.055 226.428 399.709 226.169L399.687 226.153L395.171 222.698C394.748 222.374 394.472 221.895 394.402 221.368C394.332 220.84 394.475 220.306 394.799 219.884C395.123 219.461 395.601 219.185 396.129 219.115C396.657 219.045 397.191 219.188 397.613 219.512L400.538 221.755L407.451 212.736C407.612 212.527 407.812 212.352 408.04 212.22C408.268 212.088 408.52 212.003 408.781 211.968C409.042 211.934 409.308 211.951 409.562 212.019C409.817 212.087 410.055 212.205 410.264 212.365L410.265 212.365L410.222 212.425L410.266 212.365C410.688 212.69 410.964 213.168 411.033 213.695C411.103 214.223 410.96 214.756 410.637 215.179L402.506 225.782C402.318 226.026 402.076 226.224 401.799 226.36C401.522 226.496 401.218 226.566 400.909 226.565L400.908 226.567Z" fill="#F0CA40"/>
<path d="M460.537 239.41C456.547 239.41 452.646 238.227 449.329 236.01C446.011 233.794 443.425 230.643 441.898 226.956C440.371 223.27 439.972 219.214 440.75 215.3C441.529 211.387 443.45 207.792 446.272 204.971C449.093 202.149 452.688 200.228 456.601 199.45C460.515 198.671 464.571 199.071 468.257 200.598C471.944 202.124 475.094 204.71 477.311 208.028C479.528 211.346 480.711 215.246 480.711 219.236C480.705 224.585 478.578 229.713 474.796 233.495C471.014 237.277 465.886 239.404 460.537 239.41ZM460.537 200.974C456.925 200.974 453.394 202.045 450.391 204.052C447.388 206.058 445.047 208.91 443.665 212.247C442.283 215.584 441.921 219.256 442.626 222.799C443.33 226.341 445.07 229.595 447.624 232.149C450.178 234.703 453.432 236.443 456.974 237.147C460.517 237.852 464.189 237.49 467.526 236.108C470.863 234.726 473.715 232.385 475.721 229.382C477.728 226.379 478.799 222.848 478.799 219.236C478.794 214.394 476.868 209.752 473.444 206.329C470.021 202.905 465.379 200.979 460.537 200.974V200.974Z" fill="#FFDE67"/>
<path d="M467.799 226.216C467.556 226.458 467.228 226.594 466.886 226.594C466.543 226.594 466.215 226.458 465.973 226.216L461.132 221.375C461.024 221.268 460.877 221.207 460.725 221.207C460.572 221.207 460.426 221.267 460.318 221.375L455.477 226.216C455.235 226.458 454.906 226.594 454.564 226.594C454.221 226.594 453.893 226.458 453.65 226.216C453.408 225.974 453.272 225.646 453.272 225.303C453.272 224.961 453.408 224.632 453.65 224.39L458.491 219.549C458.599 219.441 458.66 219.295 458.66 219.142C458.66 218.99 458.599 218.843 458.492 218.735L453.65 213.894C453.408 213.652 453.272 213.323 453.272 212.981C453.272 212.639 453.408 212.31 453.65 212.068C453.893 211.826 454.221 211.69 454.563 211.69C454.906 211.69 455.234 211.826 455.476 212.068L460.318 216.909C460.426 217.017 460.572 217.078 460.724 217.077C460.877 217.077 461.023 217.017 461.131 216.909L465.972 212.068C466.214 211.826 466.543 211.69 466.885 211.69C467.228 211.69 467.556 211.826 467.799 212.068C468.041 212.31 468.177 212.639 468.177 212.981C468.177 213.324 468.041 213.652 467.799 213.895L462.958 218.736C462.85 218.844 462.789 218.99 462.789 219.142C462.789 219.295 462.85 219.441 462.958 219.549L467.799 224.39C468.04 224.633 468.176 224.961 468.176 225.303C468.176 225.646 468.04 225.974 467.799 226.216V226.216Z" fill="#E6E6E6"/>
<path d="M402.812 303.46C398.822 303.46 394.922 302.277 391.604 300.06C388.286 297.843 385.701 294.692 384.174 291.006C382.647 287.32 382.247 283.263 383.026 279.35C383.804 275.436 385.725 271.842 388.547 269.02C391.368 266.199 394.963 264.278 398.876 263.499C402.79 262.721 406.846 263.12 410.533 264.647C414.219 266.174 417.37 268.76 419.586 272.078C421.803 275.395 422.986 279.296 422.986 283.286C422.98 288.634 420.853 293.762 417.071 297.544C413.289 301.326 408.161 303.454 402.812 303.46V303.46ZM402.812 265.023C399.2 265.023 395.669 266.094 392.666 268.101C389.663 270.108 387.322 272.96 385.94 276.297C384.558 279.634 384.196 283.306 384.901 286.848C385.605 290.391 387.345 293.645 389.899 296.199C392.453 298.753 395.707 300.492 399.249 301.197C402.792 301.902 406.464 301.54 409.801 300.158C413.138 298.776 415.99 296.435 417.997 293.432C420.003 290.428 421.074 286.898 421.074 283.286C421.069 278.444 419.143 273.802 415.719 270.378C412.296 266.955 407.654 265.029 402.812 265.023V265.023Z" fill="#FFDE67"/>
<path d="M400.908 290.617C400.475 290.618 400.055 290.478 399.709 290.218L399.687 290.202L395.171 286.747C394.748 286.423 394.472 285.945 394.402 285.417C394.332 284.889 394.475 284.356 394.799 283.933C395.123 283.511 395.601 283.234 396.129 283.164C396.657 283.095 397.191 283.238 397.613 283.561L400.538 285.805L407.451 276.786C407.612 276.577 407.812 276.401 408.04 276.27C408.268 276.138 408.52 276.052 408.781 276.018C409.042 275.983 409.308 276 409.562 276.069C409.817 276.137 410.055 276.254 410.264 276.415L410.265 276.415L410.222 276.475L410.266 276.415C410.688 276.739 410.964 277.217 411.033 277.745C411.103 278.272 410.96 278.806 410.637 279.228L402.506 289.832C402.318 290.076 402.076 290.274 401.799 290.409C401.522 290.545 401.218 290.615 400.909 290.614L400.908 290.617Z" fill="#8C2200"/>
<path d="M460.537 303.46C456.547 303.46 452.646 302.277 449.329 300.06C446.011 297.843 443.425 294.692 441.898 291.006C440.371 287.32 439.972 283.263 440.75 279.35C441.529 275.436 443.45 271.842 446.272 269.02C449.093 266.199 452.688 264.278 456.601 263.499C460.515 262.721 464.571 263.12 468.257 264.647C471.944 266.174 475.094 268.76 477.311 272.078C479.528 275.395 480.711 279.296 480.711 283.286C480.705 288.634 478.578 293.762 474.796 297.544C471.014 301.327 465.886 303.454 460.537 303.46ZM460.537 265.023C456.925 265.023 453.394 266.094 450.391 268.101C447.388 270.108 445.047 272.96 443.665 276.297C442.283 279.634 441.921 283.306 442.626 286.848C443.33 290.391 445.07 293.645 447.624 296.199C450.178 298.753 453.432 300.492 456.974 301.197C460.517 301.902 464.189 301.54 467.526 300.158C470.863 298.776 473.715 296.435 475.721 293.432C477.728 290.428 478.799 286.898 478.799 283.286C478.794 278.444 476.868 273.802 473.444 270.378C470.021 266.955 465.379 265.029 460.537 265.023V265.023Z" fill="#FFDE67"/>
<path d="M467.799 290.266C467.556 290.508 467.228 290.643 466.886 290.643C466.543 290.643 466.215 290.508 465.973 290.266L461.132 285.425C461.024 285.317 460.877 285.257 460.725 285.257C460.572 285.257 460.426 285.317 460.318 285.425L455.477 290.266C455.235 290.508 454.906 290.644 454.564 290.644C454.221 290.644 453.893 290.508 453.65 290.266C453.408 290.024 453.272 289.695 453.272 289.353C453.272 289.01 453.408 288.682 453.65 288.439L458.491 283.598C458.599 283.491 458.66 283.344 458.66 283.192C458.66 283.039 458.599 282.893 458.492 282.785L453.65 277.944C453.408 277.701 453.272 277.373 453.272 277.031C453.272 276.688 453.408 276.36 453.65 276.118C453.893 275.875 454.221 275.739 454.563 275.739C454.906 275.739 455.234 275.875 455.476 276.118L460.318 280.959C460.426 281.067 460.572 281.127 460.724 281.127C460.877 281.127 461.023 281.067 461.131 280.959L465.972 276.118C466.215 275.876 466.543 275.741 466.885 275.741C467.227 275.742 467.555 275.878 467.797 276.12C468.039 276.361 468.175 276.689 468.175 277.031C468.175 277.373 468.04 277.702 467.799 277.944L462.958 282.785C462.85 282.893 462.789 283.039 462.789 283.192C462.789 283.345 462.85 283.491 462.958 283.599L467.799 288.44C468.04 288.682 468.176 289.011 468.176 289.353C468.176 289.695 468.04 290.024 467.799 290.266V290.266Z" fill="#8C2200"/>
<path d="M737.418 504.356H356.418C356.153 504.356 355.898 504.251 355.711 504.064C355.523 503.876 355.418 503.622 355.418 503.356C355.418 503.091 355.523 502.837 355.711 502.649C355.898 502.462 356.153 502.356 356.418 502.356H737.418C737.683 502.356 737.937 502.462 738.125 502.649C738.312 502.837 738.418 503.091 738.418 503.356C738.418 503.622 738.312 503.876 738.125 504.064C737.937 504.251 737.683 504.356 737.418 504.356Z" fill="#CCCCCC"/>
<path d="M410.659 231.442C411.917 232.202 413.327 232.678 414.788 232.835C416.25 232.992 417.728 232.826 419.119 232.35C420.51 231.874 421.779 231.099 422.838 230.079C423.897 229.059 424.719 227.819 425.247 226.447L460.962 227.636L451.26 211.802L418.832 213.101C416.468 212.367 413.918 212.525 411.663 213.546C409.408 214.567 407.606 216.38 406.599 218.641C405.591 220.902 405.448 223.454 406.197 225.813C406.945 228.172 408.533 230.175 410.659 231.442V231.442Z" fill="#FFB8B8"/>
<path d="M612.033 308.802C613.002 307.696 613.717 306.392 614.128 304.98C614.538 303.569 614.634 302.084 614.409 300.631C614.184 299.179 613.643 297.793 612.824 296.572C612.005 295.351 610.929 294.324 609.67 293.564L617.095 258.609L599.807 265.388L595.407 297.543C594.27 299.741 593.979 302.281 594.59 304.679C595.2 307.078 596.669 309.169 598.719 310.557C600.768 311.945 603.256 312.533 605.709 312.209C608.163 311.886 610.413 310.673 612.033 308.802V308.802Z" fill="#FFB8B8"/>
<path d="M528.369 490.974L516.109 490.973L510.277 443.685L528.371 443.686L528.369 490.974Z" fill="#FBE6BE"/>
<path d="M531.495 502.858L491.965 502.856V502.356C491.965 500.336 492.363 498.335 493.136 496.468C493.909 494.602 495.042 492.905 496.471 491.477C497.9 490.048 499.596 488.915 501.463 488.141C503.33 487.368 505.331 486.97 507.351 486.97H507.352L531.496 486.971L531.495 502.858Z" fill="black"/>
<path d="M588.369 490.974L576.109 490.973L570.277 443.685L588.371 443.686L588.369 490.974Z" fill="#FBE6BE"/>
<path d="M591.495 502.858L551.965 502.856V502.356C551.965 500.336 552.363 498.335 553.136 496.468C553.909 494.602 555.042 492.905 556.471 491.477C557.9 490.048 559.596 488.915 561.463 488.141C563.33 487.368 565.33 486.97 567.351 486.97H567.352L591.496 486.971L591.495 502.858Z" fill="black"/>
<path d="M529.646 466.282L512.291 465.587C511.107 465.536 509.991 465.022 509.183 464.155C508.375 463.288 507.941 462.138 507.973 460.954L512.863 300.575L513.182 300.459C543.598 289.456 568.76 290.289 590.108 302.999L590.347 303.142L593.276 459.344C593.287 459.942 593.179 460.536 592.958 461.092C592.737 461.648 592.408 462.154 591.989 462.581C591.57 463.008 591.07 463.347 590.518 463.579C589.967 463.81 589.375 463.929 588.777 463.929H574.143C573.1 463.927 572.091 463.565 571.286 462.902C570.481 462.24 569.93 461.32 569.727 460.297L549.792 358.888C549.723 358.538 549.531 358.223 549.251 358.001C548.971 357.78 548.622 357.665 548.265 357.678C547.908 357.691 547.567 357.831 547.304 358.073C547.042 358.315 546.874 358.643 546.831 358.997L534.293 462.328C534.155 463.417 533.626 464.419 532.803 465.147C531.981 465.875 530.922 466.28 529.824 466.285C529.765 466.285 529.705 466.284 529.646 466.282Z" fill="black"/>
<path d="M546.529 159.927C560.094 159.927 571.09 148.931 571.09 135.366C571.09 121.801 560.094 110.805 546.529 110.805C532.965 110.805 521.968 121.801 521.968 135.366C521.968 148.931 532.965 159.927 546.529 159.927Z" fill="#FBE6BE"/>
<path d="M431.063 225.638C430.789 224.764 430.789 223.827 431.061 222.952L433.606 214.799C433.884 213.917 434.425 213.141 435.158 212.577C435.891 212.013 436.779 211.687 437.703 211.644L469.926 210.22L522.204 183.421C524.019 182.842 525.931 182.625 527.83 182.785C529.728 182.944 531.577 183.477 533.27 184.351C534.963 185.226 536.466 186.426 537.695 187.882C538.924 189.338 539.853 191.022 540.431 192.838C541.008 194.654 541.222 196.566 541.06 198.464C540.897 200.363 540.363 202.21 539.486 203.902C538.609 205.594 537.407 207.096 535.949 208.323C534.491 209.549 532.806 210.477 530.989 211.052L498.951 229.634C489.228 235.276 477.787 237.194 466.756 235.031L434.492 228.709C433.871 228.588 433.284 228.336 432.767 227.973C432.25 227.609 431.815 227.14 431.491 226.597C431.311 226.295 431.167 225.973 431.063 225.638Z" fill="#CCCCCC"/>
<path d="M610.984 286.171C610.122 286.482 609.186 286.522 608.301 286.287L600.046 284.092C599.153 283.852 598.355 283.344 597.76 282.636C597.166 281.928 596.802 281.054 596.72 280.133L593.924 248L564.922 196.911C564.266 195.123 563.968 193.222 564.047 191.319C564.126 189.415 564.579 187.545 565.381 185.817C566.182 184.089 567.317 182.536 568.719 181.246C570.122 179.956 571.765 178.956 573.554 178.302C575.344 177.648 577.244 177.353 579.148 177.434C581.051 177.515 582.92 177.97 584.648 178.774C586.375 179.578 587.927 180.714 589.215 182.118C590.502 183.523 591.501 185.167 592.153 186.957L612.084 218.174C618.135 227.648 620.538 238.997 618.847 250.11L613.907 282.614C613.811 283.239 613.586 283.837 613.244 284.369C612.902 284.901 612.453 285.355 611.924 285.702C611.63 285.895 611.315 286.052 610.984 286.171V286.171Z" fill="#CCCCCC"/>
<path d="M519.665 178.983C523.883 174.357 529.087 170.737 534.891 168.39C540.696 166.043 546.953 165.03 553.202 165.424C553.613 165.449 554.022 165.478 554.429 165.51H554.429C560.352 165.978 566.106 167.705 571.307 170.576C576.508 173.447 581.036 177.395 584.589 182.156C588.201 186.984 590.741 192.528 592.038 198.416C593.336 204.304 593.362 210.402 592.114 216.301C587.352 238.845 588.557 262.241 595.611 284.177L602.199 304.636C602.411 305.291 602.469 305.987 602.369 306.668C602.269 307.35 602.014 307.999 601.623 308.566C601.233 309.134 600.717 309.604 600.116 309.94C599.515 310.277 598.845 310.471 598.157 310.508L564.472 312.319L555.852 297.429V312.782L514.911 314.983C514.83 314.988 514.749 314.99 514.668 314.99C514.047 314.99 513.432 314.861 512.863 314.612C512.294 314.362 511.783 313.998 511.362 313.541C510.941 313.085 510.619 312.546 510.416 311.958C510.213 311.371 510.134 310.748 510.184 310.129L514.812 252.747L509.007 213.774C508.068 207.547 508.538 201.189 510.382 195.168C512.227 189.146 515.399 183.616 519.665 178.983V178.983Z" fill="#CCCCCC"/>
<path d="M563.599 158.813C561.325 160.122 552.337 160.989 551.696 158.445L551.683 158.389C551.237 156.525 551.607 154.578 551.735 152.666C551.863 150.753 551.676 148.653 550.373 147.247C547.945 144.625 543.626 146.015 540.115 145.352C538.058 144.893 536.24 143.7 534.999 141.997C533.759 140.294 533.181 138.197 533.375 136.099C533.425 135.702 533.503 135.304 533.591 134.906C533.811 133.898 533.794 132.854 533.542 131.854C533.289 130.854 532.809 129.926 532.138 129.143C531.467 128.36 530.623 127.743 529.673 127.341C528.724 126.938 527.694 126.762 526.664 126.825C523.116 127.028 519.286 128.103 516.351 125.475C514.081 123.442 513.527 118.152 514.524 115.273C516.201 110.435 526.938 107.902 531.626 106.51C537.424 104.834 543.523 104.472 549.479 105.449C555.435 106.427 561.098 108.719 566.057 112.159C569.018 114.246 571.783 116.869 573.045 120.265C574.307 123.661 573.698 127.945 570.852 130.187C573.059 132.523 574.612 135.397 575.357 138.522C576.102 141.647 576.013 144.914 575.099 147.993C573.693 152.523 566.984 156.865 563.599 158.813Z" fill="black"/>
<path d="M224.622 160.073H67.3607C65.334 160.071 63.391 159.264 61.9586 157.83C60.5263 156.396 59.7218 154.452 59.7218 152.425C59.7218 150.399 60.5263 148.455 61.9586 147.021C63.391 145.587 65.334 144.78 67.3607 144.778H224.622C226.648 144.78 228.591 145.587 230.024 147.021C231.456 148.455 232.261 150.399 232.261 152.425C232.261 154.452 231.456 156.396 230.024 157.83C228.591 159.264 226.648 160.071 224.622 160.073Z" fill="#8C2200"/>
<path d="M321.713 166.595H51.713C51.4478 166.595 51.1935 166.49 51.006 166.302C50.8184 166.115 50.713 165.86 50.713 165.595C50.713 165.33 50.8184 165.076 51.006 164.888C51.1935 164.701 51.4478 164.595 51.713 164.595H321.713C321.978 164.595 322.233 164.701 322.42 164.888C322.608 165.076 322.713 165.33 322.713 165.595C322.713 165.86 322.608 166.115 322.42 166.302C322.233 166.49 321.978 166.595 321.713 166.595Z" fill="#CCCCCC"/>
<path d="M224.622 224.123H67.3607C65.3324 224.123 63.3872 223.317 61.953 221.883C60.5188 220.449 59.713 218.503 59.713 216.475C59.713 214.447 60.5188 212.501 61.953 211.067C63.3872 209.633 65.3324 208.827 67.3607 208.827H224.622C226.648 208.83 228.591 209.636 230.024 211.07C231.456 212.504 232.261 214.448 232.261 216.475C232.261 218.502 231.456 220.446 230.024 221.88C228.591 223.314 226.648 224.12 224.622 224.123Z" fill="#8C2200"/>
<path d="M321.713 230.645H51.713C51.4478 230.645 51.1935 230.54 51.006 230.352C50.8184 230.165 50.713 229.91 50.713 229.645C50.713 229.38 50.8184 229.125 51.006 228.938C51.1935 228.75 51.4478 228.645 51.713 228.645H321.713C321.978 228.645 322.233 228.75 322.42 228.938C322.608 229.125 322.713 229.38 322.713 229.645C322.713 229.91 322.608 230.165 322.42 230.352C322.233 230.54 321.978 230.645 321.713 230.645Z" fill="#CCCCCC"/>
<path d="M224.622 288.172H67.3607C65.3324 288.172 63.3872 287.367 61.953 285.932C60.5188 284.498 59.713 282.553 59.713 280.525C59.713 278.496 60.5188 276.551 61.953 275.117C63.3872 273.683 65.3324 272.877 67.3607 272.877H224.622C226.648 272.879 228.591 273.686 230.024 275.12C231.456 276.554 232.261 278.498 232.261 280.525C232.261 282.551 231.456 284.495 230.024 285.929C228.591 287.363 226.648 288.17 224.622 288.172Z" fill="#FFDE67"/>
<path d="M321.713 294.694H51.713C51.4478 294.694 51.1935 294.589 51.006 294.401C50.8184 294.214 50.713 293.959 50.713 293.694C50.713 293.429 50.8184 293.175 51.006 292.987C51.1935 292.8 51.4478 292.694 51.713 292.694H321.713C321.978 292.694 322.233 292.8 322.42 292.987C322.608 293.175 322.713 293.429 322.713 293.694C322.713 293.959 322.608 294.214 322.42 294.401C322.233 294.589 321.978 294.694 321.713 294.694Z" fill="#CCCCCC"/>
</g>
<defs>
<clipPath id="clip0">
<rect width="738.418" height="504.651" fill="white"/>
</clipPath>
</defs>
</svg>
